<?xml version="1.0" encoding="UTF-8"?>
<svg xmlns="http://www.w3.org/2000/svg" viewBox="0 0 434.4 253">
  <defs>
    <style>
      .cls-1 {
        clip-path: url(#clippath-20);
      }

      .cls-2 {
        clip-path: url(#clippath-11);
      }

      .cls-3 {
        clip-path: url(#clippath-16);
      }

      .cls-4 {
        clip-path: url(#clippath-33);
      }

      .cls-5 {
        clip-path: url(#clippath-32);
      }

      .cls-6 {
        clip-path: url(#clippath-2);
      }

      .cls-7 {
        clip-path: url(#clippath-13);
      }

      .cls-8 {
        clip-path: url(#clippath-25);
      }

      .cls-9 {
        clip-path: url(#clippath-15);
      }

      .cls-10 {
        clip-path: url(#clippath-6);
      }

      .cls-11 {
        clip-path: url(#clippath-26);
      }

      .cls-12 {
        fill: none;
      }

      .cls-12, .cls-13, .cls-14, .cls-15, .cls-16 {
        stroke-width: 0px;
      }

      .cls-17 {
        clip-path: url(#clippath-7);
      }

      .cls-18 {
        clip-path: url(#clippath-21);
      }

      .cls-19 {
        clip-path: url(#clippath-34);
      }

      .cls-20 {
        clip-path: url(#clippath-1);
      }

      .cls-21 {
        clip-path: url(#clippath-4);
      }

      .cls-22 {
        clip-path: url(#clippath-27);
      }

      .cls-23 {
        clip-path: url(#clippath-12);
      }

      .cls-24 {
        clip-path: url(#clippath-24);
      }

      .cls-13 {
        fill: #e30d18;
      }

      .cls-25 {
        clip-path: url(#clippath-30);
      }

      .cls-26 {
        clip-path: url(#clippath-22);
      }

      .cls-27 {
        clip-path: url(#clippath-9);
      }

      .cls-28 {
        clip-path: url(#clippath);
      }

      .cls-29 {
        clip-path: url(#clippath-19);
      }

      .cls-30 {
        clip-path: url(#clippath-31);
      }

      .cls-31 {
        clip-path: url(#clippath-3);
      }

      .cls-32 {
        clip-path: url(#clippath-8);
      }

      .cls-14 {
        fill: #fff;
      }

      .cls-33 {
        clip-path: url(#clippath-29);
      }

      .cls-34 {
        clip-path: url(#clippath-18);
      }

      .cls-35 {
        clip-path: url(#clippath-14);
      }

      .cls-36 {
        clip-path: url(#clippath-17);
      }

      .cls-37 {
        clip-path: url(#clippath-5);
      }

      .cls-15 {
        fill: #199ca4;
      }

      .cls-16 {
        fill: #2f2a76;
      }

      .cls-38 {
        clip-path: url(#clippath-10);
      }

      .cls-39 {
        clip-path: url(#clippath-23);
      }

      .cls-40 {
        clip-path: url(#clippath-28);
      }

      .cls-41 {
        clip-path: url(#clippath-35);
      }
    </style>
    <clipPath id="clippath">
      <rect class="cls-12" x="39.5" y="23" width="355.4" height="207"/>
    </clipPath>
    <clipPath id="clippath-1">
      <rect class="cls-12" x="39.5" y="23" width="355.4" height="207"/>
    </clipPath>
    <clipPath id="clippath-2">
      <rect class="cls-12" x="39.5" y="23" width="355.4" height="207"/>
    </clipPath>
    <clipPath id="clippath-3">
      <rect class="cls-12" x="39.5" y="23" width="355.4" height="207"/>
    </clipPath>
    <clipPath id="clippath-4">
      <rect class="cls-12" x="39.5" y="23" width="355.4" height="207"/>
    </clipPath>
    <clipPath id="clippath-5">
      <rect class="cls-12" x="39.5" y="23" width="355.4" height="207"/>
    </clipPath>
    <clipPath id="clippath-6">
      <rect class="cls-12" x="39.5" y="23" width="355.4" height="207"/>
    </clipPath>
    <clipPath id="clippath-7">
      <rect class="cls-12" x="39.5" y="23" width="355.4" height="207"/>
    </clipPath>
    <clipPath id="clippath-8">
      <rect class="cls-12" x="39.5" y="23" width="355.4" height="207"/>
    </clipPath>
    <clipPath id="clippath-9">
      <rect class="cls-12" x="39.5" y="23" width="355.4" height="207"/>
    </clipPath>
    <clipPath id="clippath-10">
      <rect class="cls-12" x="39.5" y="23" width="355.4" height="207"/>
    </clipPath>
    <clipPath id="clippath-11">
      <rect class="cls-12" x="39.5" y="23" width="355.4" height="207"/>
    </clipPath>
    <clipPath id="clippath-12">
      <rect class="cls-12" x="39.5" y="23" width="355.4" height="207"/>
    </clipPath>
    <clipPath id="clippath-13">
      <rect class="cls-12" x="39.5" y="23" width="355.4" height="207"/>
    </clipPath>
    <clipPath id="clippath-14">
      <rect class="cls-12" x="39.5" y="23" width="355.4" height="207"/>
    </clipPath>
    <clipPath id="clippath-15">
      <rect class="cls-12" x="39.5" y="23" width="355.4" height="207"/>
    </clipPath>
    <clipPath id="clippath-16">
      <rect class="cls-12" x="39.5" y="23" width="355.4" height="207"/>
    </clipPath>
    <clipPath id="clippath-17">
      <rect class="cls-12" x="39.5" y="23" width="355.4" height="207"/>
    </clipPath>
    <clipPath id="clippath-18">
      <rect class="cls-12" x="39.5" y="23" width="355.4" height="207"/>
    </clipPath>
    <clipPath id="clippath-19">
      <rect class="cls-12" x="39.5" y="23" width="355.4" height="207"/>
    </clipPath>
    <clipPath id="clippath-20">
      <rect class="cls-12" x="39.5" y="23" width="355.4" height="207"/>
    </clipPath>
    <clipPath id="clippath-21">
      <rect class="cls-12" x="39.5" y="23" width="355.4" height="207"/>
    </clipPath>
    <clipPath id="clippath-22">
      <rect class="cls-12" x="39.5" y="23" width="355.4" height="207"/>
    </clipPath>
    <clipPath id="clippath-23">
      <rect class="cls-12" x="39.5" y="23" width="355.4" height="207"/>
    </clipPath>
    <clipPath id="clippath-24">
      <rect class="cls-12" x="39.5" y="23" width="355.4" height="207"/>
    </clipPath>
    <clipPath id="clippath-25">
      <rect class="cls-12" x="39.5" y="23" width="355.4" height="207"/>
    </clipPath>
    <clipPath id="clippath-26">
      <rect class="cls-12" x="39.5" y="23" width="355.4" height="207"/>
    </clipPath>
    <clipPath id="clippath-27">
      <rect class="cls-12" x="39.5" y="23" width="355.4" height="207"/>
    </clipPath>
    <clipPath id="clippath-28">
      <rect class="cls-12" x="39.5" y="23" width="355.4" height="207"/>
    </clipPath>
    <clipPath id="clippath-29">
      <rect class="cls-12" x="39.5" y="23" width="355.4" height="207"/>
    </clipPath>
    <clipPath id="clippath-30">
      <rect class="cls-12" x="39.5" y="23" width="355.4" height="207"/>
    </clipPath>
    <clipPath id="clippath-31">
      <rect class="cls-12" x="39.5" y="23" width="355.4" height="207"/>
    </clipPath>
    <clipPath id="clippath-32">
      <rect class="cls-12" x="39.5" y="23" width="355.4" height="207"/>
    </clipPath>
    <clipPath id="clippath-33">
      <rect class="cls-12" x="39.5" y="23" width="355.4" height="207"/>
    </clipPath>
    <clipPath id="clippath-34">
      <rect class="cls-12" x="39.5" y="23" width="355.4" height="207"/>
    </clipPath>
    <clipPath id="clippath-35">
      <rect class="cls-12" x="39.5" y="23" width="355.4" height="207"/>
    </clipPath>
  </defs>
  <g id="Bg">
    <rect class="cls-14" x="0" width="420" height="240" rx="8" ry="8"/>
  </g>
  <g id="Logo">
    <g>
      <g class="cls-28">
        <path class="cls-16" d="M209,196.1v-1.2c-1,1-1.9,1.4-3.6,1.4s-2.8-.4-3.6-1.2c-.7-.7-1.1-1.7-1.1-2.9,0-2.2,1.6-3.8,4.6-3.8h3.5v-.9c0-1.7-.8-2.5-2.9-2.5s-2.2.3-2.9,1.3l-1.8-1.7c1.3-1.5,2.6-1.9,4.8-1.9,3.7,0,5.5,1.6,5.5,4.6v8.9h-2.6ZM208.9,190.2h-3.1c-1.6,0-2.4.7-2.4,1.9s.8,1.9,2.4,1.9,1.8,0,2.5-.8c.4-.4.6-1,.6-2v-1.1h0Z"/>
      </g>
      <g class="cls-20">
        <path class="cls-16" d="M219.1,196.1c-2.5,0-3.7-1.8-3.7-3.7v-7.4h-1.5v-2.1h1.5v-4.1h2.7v4.1h2.6v2.1h-2.6v7.2c0,1,.5,1.6,1.5,1.6h1.1v2.3h-1.6Z"/>
      </g>
      <g class="cls-6">
        <path class="cls-16" d="M223.4,177.3h2.8v2.8h-2.8v-2.8ZM223.5,182.8h2.7v13.4h-2.7v-13.4Z"/>
      </g>
      <g class="cls-31">
        <path class="cls-16" d="M231.9,190.2c0,2.3,1.2,3.7,3.4,3.7s2.3-.4,3.2-1.4l1.7,1.6c-1.4,1.4-2.7,2.1-5,2.1-3.3,0-6-1.8-6-6.9s2.2-6.8,5.7-6.8,5.7,2.6,5.7,6.4v1.2h-8.7ZM237.5,186.6c-.4-1-1.4-1.7-2.6-1.7s-2.2.7-2.7,1.7c-.3.6-.3,1-.3,1.8h6c0-.8-.1-1.2-.4-1.8"/>
      </g>
      <g class="cls-21">
        <path class="cls-16" d="M246.6,185.1v11.1h-2.7v-11.1h-1.5v-2.1h1.5v-2.1c0-1.9,1.2-3.7,3.7-3.7h1.7v2.3h-1.2c-1,0-1.5.6-1.5,1.6v1.9h2.7v2.1h-2.7Z"/>
      </g>
      <g class="cls-37">
        <path class="cls-16" d="M267.4,194.7c-.9.9-2.2,1.6-4,1.6s-3.1-.7-4-1.6c-1.3-1.3-1.6-3-1.6-5.3s.3-3.9,1.6-5.2c.9-.9,2.2-1.6,4-1.6s3.1.7,4,1.6c1.3,1.3,1.6,3,1.6,5.2s-.3,4-1.6,5.3M265.4,185.8c-.5-.5-1.2-.8-2-.8s-1.4.3-1.9.8c-.8.8-.9,2.2-.9,3.7s.1,2.8.9,3.7c.5.5,1.2.8,1.9.8s1.5-.3,2-.8c.8-.8.9-2.2.9-3.7s-.1-2.8-.9-3.7"/>
      </g>
      <g class="cls-10">
        <path class="cls-16" d="M280.2,196.1v-8.1c0-2.1-1.2-3-2.7-3s-2.8.9-2.8,3v8.1h-2.7v-13.4h2.6v1.3c.9-1,2.2-1.5,3.6-1.5s2.5.4,3.3,1.2c1,1,1.3,2.3,1.3,3.8v8.5h-2.7Z"/>
      </g>
      <g class="cls-17">
        <path class="cls-16" d="M290.4,196.1c-2.5,0-3.7-1.8-3.7-3.7v-7.4h-1.5v-2.1h1.5v-4.1h2.7v4.1h2.6v2.1h-2.6v7.2c0,1,.5,1.6,1.5,1.6h1.1v2.3h-1.6Z"/>
      </g>
      <g class="cls-32">
        <polygon class="cls-16" points="308.9 196.1 306.6 196.1 303.5 186.8 300.3 196.1 298 196.1 293.9 182.8 296.7 182.8 299.3 192.2 302.4 182.8 304.5 182.8 307.6 192.2 310.2 182.8 313 182.8 308.9 196.1"/>
      </g>
      <g class="cls-27">
        <path class="cls-16" d="M315.2,177.3h2.8v2.8h-2.8v-2.8ZM315.3,182.8h2.7v13.4h-2.7v-13.4Z"/>
      </g>
      <g class="cls-38">
        <polygon class="cls-16" points="330 196.1 326.3 190 324.3 192.2 324.3 196.1 321.6 196.1 321.6 177.4 324.3 177.4 324.3 189 329.5 182.8 332.8 182.8 328.1 188 333.3 196.1 330 196.1"/>
      </g>
      <g class="cls-2">
        <polygon class="cls-16" points="344.2 196.1 340.4 190 338.5 192.2 338.5 196.1 335.8 196.1 335.8 177.4 338.5 177.4 338.5 189 343.7 182.8 346.9 182.8 342.3 188 347.5 196.1 344.2 196.1"/>
      </g>
      <g class="cls-23">
        <path class="cls-16" d="M351.1,190.2c0,2.3,1.2,3.7,3.4,3.7s2.3-.4,3.2-1.4l1.7,1.6c-1.4,1.4-2.7,2.1-5,2.1-3.3,0-6-1.8-6-6.9s2.2-6.8,5.7-6.8,5.7,2.6,5.7,6.4v1.2h-8.7ZM356.7,186.6c-.4-1-1.4-1.7-2.6-1.7s-2.2.7-2.7,1.7c-.3.6-.3,1-.3,1.8h6c0-.8-.1-1.2-.4-1.8"/>
      </g>
      <g class="cls-7">
        <path class="cls-16" d="M366.3,196.1c-2.6,0-3.7-1.7-3.7-3.7v-15.1h2.7v14.9c0,1,.4,1.6,1.5,1.6h1.2v2.3h-1.7Z"/>
      </g>
      <g class="cls-35">
        <path class="cls-16" d="M372.4,190.2c0,2.3,1.2,3.7,3.4,3.7s2.3-.4,3.2-1.4l1.7,1.6c-1.4,1.4-2.7,2.1-5,2.1-3.3,0-6-1.8-6-6.9s2.2-6.8,5.7-6.8,5.7,2.6,5.7,6.4v1.2h-8.7ZM378,186.6c-.4-1-1.4-1.7-2.6-1.7s-2.2.7-2.7,1.7c-.3.6-.3,1-.3,1.8h6c0-.8-.1-1.2-.4-1.8"/>
      </g>
      <g class="cls-9">
        <path class="cls-16" d="M392.2,196.1v-8.1c0-2.1-1.2-3-2.7-3s-2.8.9-2.8,3v8.1h-2.7v-13.4h2.6v1.3c.9-1,2.2-1.5,3.6-1.5s2.5.4,3.3,1.2c1,1,1.3,2.3,1.3,3.8v8.5h-2.7Z"/>
      </g>
      <g class="cls-3">
        <polygon class="cls-16" points="75.6 179.9 75.6 196.1 72.8 196.1 72.8 179.9 67.6 179.9 67.6 177.4 80.8 177.4 80.8 179.9 75.6 179.9"/>
      </g>
      <g class="cls-36">
        <rect class="cls-15" x="244.9" y="139.7" width="9.6" height="9.6"/>
      </g>
      <g class="cls-34">
        <path class="cls-16" d="M88.4,196.1v-1.2c-1,1-1.9,1.4-3.6,1.4s-2.8-.4-3.6-1.2c-.7-.7-1.1-1.7-1.1-2.9,0-2.2,1.6-3.8,4.6-3.8h3.5v-.9c0-1.7-.8-2.5-2.9-2.5s-2.2.3-2.9,1.3l-1.8-1.7c1.3-1.5,2.6-1.9,4.8-1.9,3.7,0,5.5,1.6,5.5,4.6v8.9h-2.6ZM88.4,190.2h-3.1c-1.6,0-2.4.7-2.4,1.9s.8,1.9,2.5,1.9,1.8,0,2.5-.8c.4-.4.6-1,.6-2,0,0,0-1.1,0-1.1Z"/>
      </g>
      <g class="cls-29">
        <path class="cls-16" d="M98.2,196.1c-2.6,0-3.7-1.7-3.7-3.7v-15.1h2.7v14.9c0,1,.4,1.6,1.4,1.6h1.2v2.3h-1.7Z"/>
      </g>
      <g class="cls-1">
        <path class="cls-16" d="M104.2,190.2c0,2.3,1.2,3.7,3.4,3.7s2.3-.4,3.2-1.4l1.7,1.6c-1.4,1.4-2.7,2.1-5,2.1-3.3,0-6-1.8-6-6.9s2.2-6.8,5.7-6.8,5.7,2.6,5.7,6.4v1.2h-8.7ZM109.9,186.6c-.4-1-1.4-1.7-2.6-1.7s-2.2.7-2.7,1.7c-.3.6-.3,1-.3,1.8h6c0-.8-.1-1.2-.4-1.8"/>
      </g>
      <g class="cls-18">
        <path class="cls-16" d="M124.1,196.1v-8.1c0-2.1-1.2-3-2.7-3s-2.8.9-2.8,3v8.1h-2.7v-13.4h2.6v1.3c.9-1,2.2-1.5,3.6-1.5s2.5.4,3.3,1.2c1,1,1.3,2.3,1.3,3.8v8.5h-2.7Z"/>
      </g>
      <g class="cls-26">
        <path class="cls-16" d="M134.3,196.1c-2.5,0-3.7-1.8-3.7-3.7v-7.4h-1.5v-2.1h1.5v-4.1h2.7v4.1h2.6v2.1h-2.6v7.2c0,1,.5,1.6,1.5,1.6h1.1v2.3h-1.6Z"/>
      </g>
      <g class="cls-39">
        <path class="cls-16" d="M169.9,196.3c-3,0-6-1.8-6-6.8s3-6.8,6-6.8,3.1.5,4.4,1.9l-1.8,1.8c-.8-.9-1.5-1.3-2.6-1.3s-1.9.4-2.5,1.2c-.6.7-.8,1.7-.8,3.2s.2,2.5.8,3.3c.6.8,1.4,1.2,2.5,1.2s1.7-.3,2.6-1.3l1.8,1.8c-1.3,1.3-2.6,1.9-4.4,1.9"/>
      </g>
      <g class="cls-24">
        <path class="cls-16" d="M184.2,185.9c-.6-.6-1.1-.9-2-.9-1.4,0-2.7,1.2-2.7,3v8.1h-2.7v-13.4h2.6v1.4c.7-.9,2.1-1.6,3.6-1.6s2.3.3,3.2,1.3l-2,2Z"/>
      </g>
      <g class="cls-8">
        <path class="cls-16" d="M189.9,190.2c0,2.3,1.2,3.7,3.4,3.7s2.3-.4,3.2-1.4l1.7,1.6c-1.4,1.4-2.7,2.1-5,2.1-3.3,0-6-1.8-6-6.9s2.2-6.8,5.7-6.8,5.7,2.6,5.7,6.4v1.2h-8.7ZM195.6,186.6c-.4-1-1.4-1.7-2.6-1.7s-2.2.7-2.7,1.7c-.3.6-.3,1-.3,1.8h6c0-.8-.1-1.2-.4-1.8"/>
      </g>
      <g class="cls-11">
        <polygon class="cls-15" points="67.8 149.4 59.1 149.4 39.5 96 50.9 96 63.5 133.6 76 96 87.4 96 67.8 149.4"/>
      </g>
      <g class="cls-22">
        <path class="cls-15" d="M102.6,149.4c-10.2,0-14.6-6.8-14.6-14.7v-60.2h10.7v59.6c0,4.1,1.5,6.2,5.8,6.2h4.7v9.2h-6.6Z"/>
      </g>
      <g class="cls-40">
        <path class="cls-15" d="M141.6,149.4v-4.8c-3.9,3.9-7.6,5.5-14.2,5.5s-11.1-1.6-14.3-4.8c-2.7-2.8-4.2-6.9-4.2-11.5,0-8.9,6.2-15.4,18.4-15.4h14.1v-3.8c0-6.7-3.4-10-11.7-10s-8.7,1.4-11.7,5.2l-7-6.6c5.1-5.9,10.3-7.7,19.2-7.7,14.6,0,22,6.2,22,18.3v35.7h-10.5ZM141.3,125.8h-12.5c-6.3,0-9.6,2.8-9.6,7.7s3.1,7.6,9.8,7.6,7.2-.3,10-3.1c1.6-1.6,2.3-4.1,2.3-7.9,0,0,0-4.3,0-4.3Z"/>
      </g>
      <g class="cls-33">
        <path class="cls-16" d="M211,58.9c-13.6,6,1.4-19.2,6.7-29.5,7.5-14.6,10.3,22.1-6.7,29.5"/>
      </g>
      <g class="cls-25">
        <path class="cls-15" d="M281.3,137.6c1.5,1.5,2.5,3.6,2.5,6.3s-1,4.8-2.5,6.3c-2.3,2.2-5.4,2.7-8.8,2.7s-6.5-.4-8.8-2.7c-1.5-1.5-2.5-3.6-2.5-6.3s1-4.8,2.5-6.3c2.3-2.2,5.4-2.7,8.8-2.7,3.4,0,6.5.4,8.8,2.7M265.7,139.8c-1,1-1.6,2.5-1.6,4s.6,3,1.6,4c1.6,1.6,4.3,1.8,6.8,1.8s5.2-.2,6.8-1.8c1-1,1.6-2.4,1.6-4s-.6-3-1.6-4c-1.6-1.6-4.3-1.7-6.8-1.7-2.5,0-5.2.1-6.8,1.7"/>
      </g>
      <g class="cls-30">
        <path class="cls-15" d="M265.7,119.1c-1.2,1.2-1.6,2.1-1.6,3.8,0,3.2,2.6,5.3,5.9,5.3h13.5v3.2h-22v-3.2h2.7c-1.8-1.2-3-3.6-3-6.2s.5-3.7,2.1-5.3l2.4,2.4Z"/>
      </g>
      <g class="cls-5">
        <path class="cls-15" d="M293.7,108.3c0,3.3-.9,5.1-3,7.5l-2.1-2.1c1.4-1.6,2.2-2.7,2.2-5.3,0-4.3-3-6-6.8-6h-3.4c2.3,1.8,2.9,3.8,2.9,6.2s-.8,4.2-2,5.3c-2.2,2.2-5.6,2.7-9.2,2.7s-7-.5-9.2-2.7c-1.2-1.2-1.9-3.1-1.9-5.4s.5-4.4,2.9-6.2h-2.6v-3.2h22.7c5.5,0,9.4,3.4,9.4,9.2M264.1,107.8c0,4.8,4.1,5.5,8.2,5.5s8.2-.7,8.2-5.5-4.1-5.5-8.2-5.5c-4.1,0-8.2.7-8.2,5.5"/>
      </g>
      <g class="cls-4">
        <path class="cls-16" d="M164.1,158.2c-12.2,26.3-28.3,54.1-46.1,68.7-6,4.9,1,3.6,7.5-1.2,13.4-10,31.3-33.7,46.9-59.5-1.7-.9-3.3-2.1-4.6-3.4-1.4-1.4-2.7-2.9-3.7-4.5"/>
      </g>
      <g class="cls-19">
        <path class="cls-16" d="M208,80.1c0-.8-.1-1.5-.3-2.2-1.8-8.2-16.4-6.6-24.9-5.5-24.2,3.2-74.2,18-80.5,21.7-4.8,2.8,16.7-3.5,27.9-5.9,20.5-4.4,42.1-8.4,51.2-6.7,5.8,1.1,7.3,4.6,6.9,9.6,0,.8-.2,1.6-.3,2.5-.5,3-1.5,6.4-2.6,10-2,6.8-5.8,17.6-10.8,30.4,1.2,6.3,3.6,12.1,6.8,16.8,14.8-26.8,26-53.5,26.6-67.8,0-1,0-1.9,0-2.8"/>
      </g>
      <g class="cls-41">
        <path class="cls-13" d="M233.7,82.9c-7-5.1-16.2-5.8-25.7-2.8,0,.9,0,1.8,0,2.8,3.8-.6,7.5-.3,10.9,1,14.5,5.4,19.9,26.8,12,47.8-7.8,21-20.3,33-35.4,29.7-5.4-1.2-10.4-5.1-14.2-10.7-3.2-4.7-5.7-10.5-6.8-16.8-1.3-7.2-1-15,1.7-22.2,2.7-7.2,6.8-13.3,11.7-18.1.1-.9.3-1.7.3-2.5-4.6,3.8-9,8.4-12.8,13.8-15,20.7-20.1,40.1-11.5,53.4,1,1.6,2.3,3.1,3.7,4.5,1.3,1.3,2.9,2.5,4.6,3.4,15.6,8.6,45.1,1.7,60.3-19.2,16.8-23.2,16.3-53,1-64.1"/>
      </g>
    </g>
  </g>
</svg>