<?xml version="1.0" encoding="UTF-8"?>
<svg xmlns="http://www.w3.org/2000/svg" version="1.1" viewBox="0 0 1172 336">
  <defs>
    <style>
      .cls-1 {
        fill: #13100d;
      }

      .cls-2 {
        fill: #fff;
      }

    </style>
  </defs>
  <g id="Bg">
    <circle class="cls-2" cx="167.9" cy="167.8" r="156"/>
  </g>
  <g id="Logo">
        <circle class="cls-1" cx="167.9" cy="167.8" r="140"/>
        <path class="cls-2" d="M111.3,123h-51.8v90.1h27.7v-27.2h16.4c17.8,0,31-7.6,34.4-23.5l-26.8-39.3h.1Z"/>
        <polygon class="cls-2" points="180.6 165.4 209.5 123.1 179.2 123.1 115.7 213.1 148.1 213.1 164 186.3 179.4 213.1 212.8 213.1 180.6 165.4"/>
        <polygon class="cls-2" points="151.8 123.1 119.2 123.1 145.7 160.2 160.6 139 151.8 123.1"/>
        <polygon class="cls-2" points="279.2 190 239.4 190 239.4 123.1 211.6 123.1 211.6 197.6 222.2 213.1 279.2 213.1 279.2 190"/>
        <path class="cls-1" d="M94.1,165.3c-.9,0-1.9-.4-2.6-1.1l-8.2-8.3c-2.7-2.7-3-7.1-.7-10.1,1.2-1.6,3-2.6,4.9-2.7,1.9-.1,3.8.6,5.2,2l1.4,1.4,1.3-1.3c1.3-1.4,3.1-2.1,5-2,1.9,0,3.6.9,4.8,2.4,2.5,2.9,2.4,7.6-.3,10.3l-8.2,8.3c-.7.7-1.7,1.1-2.6,1.1h0ZM94.5,161h0ZM87.9,147.8h0c-.7,0-1.3.4-1.7,1-.9,1.1-.7,2.9.3,3.9l7.7,7.8,7.8-7.8c1-1.1,1.1-2.8,0-4-.5-.5-1.1-.8-1.7-.8s-1.3.2-1.7.7l-4.4,4.5-4.5-4.6c-.5-.5-1-.7-1.7-.7h-.1Z"/>
  </g>
  <g id="Text">
        <path d="M438.9,202.4c-8.3,9.9-22.7,10.8-34.2,10.8h-69v-89.7h75.3c9,0,20.1.6,25.4,9.4,1.3,2,3,5.8,3,11.6s-.1,7.7-3.8,12.4c-2,2.5-6.1,6-13.3,7.7,5.6.9,10.7,1.8,15.1,5.6,5.3,4.4,6.6,9.9,6.6,16.5s-.1,9.4-5.2,15.6h0ZM404.1,177.1h-36.2v15.6h33.8c.3,0,2.8,0,4.4-.4,4.1-.9,6.1-3.8,6.1-7.9,0-7.2-6-7.4-8.1-7.4h0ZM407.8,146.9c-1.7-2.8-4.7-3.2-7.6-3.2h-32v14h29.7c3.3,0,8,.3,10-3.4.5-1,.9-2.4.9-3.6s0-2.2-1-3.8Z"/>
        <path d="M551.5,204.7c-7.7,7.2-20.7,11.7-43.4,11.7s-10.8,0-18.7-1c-3-.4-21.5-2.5-29.8-15.2-5-7.5-4.7-16.1-4.7-19v-57.5h32v50.9c0,6.5.5,12.2,5.7,16.9,5.6,5.1,13.3,5.1,15.5,5.1s9.8-.1,15.1-4.7c2.3-2,3.4-4.4,3.8-5.3,1.9-4.1,2-8.1,2-12.4v-50.4h32v47c0,12.2.4,24.9-9.5,34.2v-.3Z"/>
        <path d="M662.4,201.3c-7.5,9.4-21,14.6-45.5,14.6s-33-5-39.6-12.4c-6.1-6.7-6.7-13.7-7.2-17l31.6-.8c.3,1.5.9,3.9,4.1,6.2,3,2.3,7.5,3.9,15.9,3.9s7.4-.4,10.4-1.9c2.7-1.4,5.1-3.9,5.1-7.1s-.9-4.7-5.1-6.5c-2.2-.9-7.5-1.9-13.7-3-7-1.4-14.1-2.5-21.1-4.4-7.6-2.2-14.6-4.8-19.2-11.8-3.3-5.1-3.6-10.2-3.6-12.4,0-4.8,1.4-9.3,3.9-13.2,5.8-9.4,18.3-15.6,41.3-15.6s20.4,1,27.9,3.6c3.2,1,6.1,2.5,8.8,4.6,8.5,6.2,9.8,14.1,10.4,18l-31.4,1.8c-.4-1-.6-2-1.1-2.9-2-3.4-6.6-5.5-14.7-5.5s-8.3-.1-12.1,3c-1.8,1.4-2,3.4-2,4.3s.3,2.7,2,4.1c4.4,3.6,20.3,5.7,36.3,9.4,10.3,2.4,15.1,5.1,18.5,8.8,2.3,2.3,6,7,6,15.4s-2.2,12.3-6,17v-.2Z"/>
        <path d="M679.7,213.2v-89.7h32.1v89.7h-32.1Z"/>
        <path d="M801.7,213.2l-42.5-48v48h-31.7v-89.7h26.5l42.8,47.2v-47.2h31.6v89.7h-26.7,0Z"/>
        <path d="M843.6,213.2v-89.7h94.6v20.1h-62.5v14.7h57.8v20.2h-57.8v14.4h63.6v20.3h-95.8.1Z"/>
        <path d="M1035.4,201.3c-7.5,9.4-21,14.6-45.5,14.6s-33-5-39.6-12.4c-6.1-6.7-6.7-13.7-7.2-17l31.6-.8c.3,1.5.9,3.9,4.1,6.2,3,2.3,7.5,3.9,15.9,3.9s7.4-.4,10.4-1.9c2.7-1.4,5.1-3.9,5.1-7.1s-.9-4.7-5.1-6.5c-2.2-.9-7.5-1.9-13.7-3-7-1.4-14.1-2.5-21.1-4.4-7.6-2.2-14.6-4.8-19.2-11.8-3.3-5.1-3.6-10.2-3.6-12.4,0-4.8,1.4-9.3,3.9-13.2,5.8-9.4,18.3-15.6,41.3-15.6s20.4,1,27.9,3.6c3.2,1,6.1,2.5,8.8,4.6,8.5,6.2,9.8,14.1,10.4,18l-31.4,1.8c-.4-1-.6-2-1.1-2.9-2-3.4-6.6-5.5-14.7-5.5s-8.3-.1-12.1,3c-1.8,1.4-2,3.4-2,4.3s.3,2.7,2,4.1c4.4,3.6,20.3,5.7,36.3,9.4,10.3,2.4,15.1,5.1,18.5,8.8,2.3,2.3,6,7,6,15.4s-2.2,12.3-6,17v-.2Z"/>
        <path d="M1138.5,201.3c-7.5,9.4-21,14.6-45.5,14.6s-33-5-39.6-12.4c-6.1-6.7-6.7-13.7-7.2-17l31.6-.8c.3,1.5.9,3.9,4.1,6.2,3,2.3,7.5,3.9,15.9,3.9s7.4-.4,10.4-1.9c2.7-1.4,5.1-3.9,5.1-7.1s-.9-4.7-5.1-6.5c-2.2-.9-7.5-1.9-13.7-3-7-1.4-14.1-2.5-21.1-4.4-7.6-2.2-14.6-4.8-19.2-11.8-3.3-5.1-3.6-10.2-3.6-12.4,0-4.8,1.4-9.3,3.9-13.2,5.8-9.4,18.3-15.6,41.3-15.6s20.4,1,27.9,3.6c3.2,1,6.1,2.5,8.8,4.6,8.5,6.2,9.8,14.1,10.4,18l-31.4,1.8c-.4-1-.6-2-1.1-2.9-2-3.4-6.6-5.5-14.7-5.5s-8.3-.1-12.1,3c-1.8,1.4-2,3.4-2,4.3s.3,2.7,2,4.1c4.4,3.6,20.3,5.7,36.3,9.4,10.3,2.4,15.1,5.1,18.5,8.8,2.3,2.3,6,7,6,15.4s-2.2,12.3-6,17v-.2Z"/>
  </g>

</svg>