<svg width="70" height="44" viewBox="0 0 70 44" fill="none" xmlns="http://www.w3.org/2000/svg">
<path d="M31.0413 34.8924V41.2095M31.0413 2V8.31716M7.14509 21.6042C7.14509 28.9433 12.8997 34.8709 20.2971 34.8709C20.4496 34.8709 20.9129 34.8788 20.9869 34.8754H37.9366V41.2095H20.7627C9.84766 41.2095 1 32.4328 1 21.6042C1 10.7756 9.84766 2 20.7627 2H37.9366V8.31716H20.3073C12.91 8.31716 7.14509 14.2662 7.14509 21.6042Z" stroke="url(#paint0_linear_152_18)" stroke-width="1.5" stroke-linejoin="round"/>
<path d="M45.318 39.2762L42.2727 35.938L42.5505 39.3868L39.6874 35.8014" stroke="#B28CFF" stroke-linecap="round" stroke-linejoin="round"/>
<path d="M45.0903 6.37816L42.0451 3.03889L42.3229 6.4877L39.4598 2.90338" stroke="#DE5575" stroke-linecap="round" stroke-linejoin="round"/>
<path d="M24.4216 19.4981L23.3999 13.6373L21.7024 19.4981H19.8254L18.1278 13.6373L17.1062 19.4981H15L16.6857 11H18.9582L20.771 16.9608L22.5707 11H24.8433L26.529 19.4981H24.4227H24.4216Z" fill="#DE5575"/>
<path d="M33.678 19.4981H31.763V18.8353C31.3805 19.3981 30.5501 19.6225 29.835 19.6225C28.2396 19.6225 27.0386 18.2725 27.0386 16.748C27.0386 15.2235 28.2384 13.8618 29.835 13.8618C30.5501 13.8618 31.2653 14.0618 31.763 14.6618V13.999H33.678V19.4981ZM30.423 15.3746C29.6568 15.3746 29.083 16.0247 29.083 16.7491C29.083 17.4736 29.658 18.1236 30.423 18.1236C31.1881 18.1236 31.763 17.4736 31.763 16.7491C31.763 16.0247 31.1881 15.3746 30.423 15.3746Z" fill="#DE5575"/>
<path d="M39.6153 13.9873H41.5303V19.4865C41.5303 21.2982 40.062 22.6227 38.2753 22.6227C36.7429 22.6227 35.0714 21.8726 34.9812 20.1981H36.8961C37.0363 20.8482 37.5602 21.2354 38.1732 21.2354C39.0154 21.2354 39.6153 20.4854 39.6153 19.6981V18.8236C39.2328 19.3981 38.4024 19.6237 37.6873 19.6237C36.0919 19.6237 34.8909 18.262 34.8909 16.7363C34.8909 15.2107 36.0907 13.8618 37.6873 13.8618C38.4024 13.8618 39.0665 14.0362 39.6153 14.6618V13.9873ZM39.6153 16.7363C39.6153 16.0119 39.0404 15.3618 38.2753 15.3618C37.5103 15.3618 36.9353 16.0119 36.9353 16.7363C36.9353 17.4608 37.5103 18.1236 38.2753 18.1236C39.0404 18.1236 39.6153 17.4736 39.6153 16.7363Z" fill="#DE5575"/>
<path d="M48.8195 19.4981H46.9045V16.3735C46.9045 15.7235 46.6491 15.3735 46.0492 15.3735C45.4493 15.3735 44.9765 15.9979 44.9765 16.748V19.4969H43.0615V13.9862H44.9765V14.6606C45.359 14.1862 45.9589 13.8606 46.7002 13.8606C48.2065 13.8606 48.8195 14.8723 48.8195 16.3724V19.4969V19.4981Z" fill="#DE5575"/>
<path d="M56.2632 16.7491C56.2632 18.5109 54.846 19.6109 53.0593 19.6109C51.2726 19.6109 49.8423 18.5109 49.8423 16.7491C49.8423 14.9874 51.2976 13.8746 53.0593 13.8746C54.821 13.8746 56.2632 15.0246 56.2632 16.7491ZM54.3613 16.7619C54.3613 16.0747 54.0548 15.3374 53.0593 15.3374C52.0638 15.3374 51.7442 16.0747 51.7442 16.7619C51.7442 17.4492 52.0246 18.1992 53.0593 18.1992C54.094 18.1992 54.3613 17.462 54.3613 16.7619Z" fill="#DE5575"/>
<path d="M59.8899 19.4981H57.988V15.4363H56.9664V13.9862H57.988V11.8873H59.8899V13.9862H60.9115V15.4363H59.8899V19.4981Z" fill="#DE5575"/>
<path d="M38.6376 28.7683V31.4987H37.1052V24.6984H41.1299V26.0589H38.6376V27.409H41.0277V28.7695H38.6376V28.7683Z" fill="#4BA8E9"/>
<path d="M47.3631 29.2986C47.3631 30.7091 46.2286 31.5882 44.7983 31.5882C43.368 31.5882 42.2241 30.708 42.2241 29.2986C42.2241 27.8892 43.3882 26.9985 44.7983 26.9985C46.2084 26.9985 47.3631 27.9183 47.3631 29.2986ZM45.8402 29.3091C45.8402 28.759 45.5954 28.1695 44.7983 28.1695C44.0012 28.1695 43.7458 28.759 43.7458 29.3091C43.7458 29.8591 43.9703 30.4591 44.7983 30.4591C45.6263 30.4591 45.8402 29.8696 45.8402 29.3091Z" fill="#4BA8E9"/>
<path d="M50.0905 29.2986V31.4987H48.5581V27.088H50.0905V27.6276C50.3258 27.2974 50.7142 26.988 51.2761 26.988C51.4092 26.988 51.6135 27.0276 51.7358 27.088V28.4486H51.7157C51.5624 28.2683 51.3379 28.1986 51.1027 28.1986C50.5301 28.1986 50.0917 28.7684 50.0917 29.2986H50.0905Z" fill="#4BA8E9"/>
<path d="M56.2001 27.0891H57.7326V31.4894C57.7326 32.9394 56.5577 34 55.1274 34C53.9015 34 52.5627 33.3999 52.4914 32.0603H54.0238C54.1367 32.5801 54.5548 32.8906 55.0455 32.8906C55.7202 32.8906 56.2001 32.2906 56.2001 31.6603V30.9603C55.8936 31.4208 55.2296 31.5998 54.657 31.5998C53.38 31.5998 52.4201 30.5103 52.4201 29.2893C52.4201 28.0683 53.38 26.9891 54.657 26.9891C55.2296 26.9891 55.7606 27.1287 56.2001 27.6287V27.0891ZM56.2001 29.2893C56.2001 28.709 55.7404 28.1892 55.1274 28.1892C54.5144 28.1892 54.0547 28.709 54.0547 29.2893C54.0547 29.8695 54.5144 30.3998 55.1274 30.3998C55.7404 30.3998 56.2001 29.88 56.2001 29.2893Z" fill="#4BA8E9"/>
<path d="M64.0465 29.4789H60.5528C60.5528 29.9894 60.921 30.5289 61.5233 30.5289C62.065 30.5289 62.4024 30.1789 62.4119 29.8591H63.9752C63.7091 31.0196 62.7493 31.5987 61.5542 31.5987C60.0015 31.5987 58.9288 30.6987 58.9288 29.2986C58.9288 27.8985 60.0419 26.988 61.5542 26.988C62.9227 26.988 64.0572 27.7881 64.0572 29.1986C64.0572 29.2882 64.0465 29.3882 64.0465 29.4789ZM62.5853 28.7684C62.5853 28.7684 62.514 27.9486 61.5839 27.9486C60.6537 27.9486 60.5729 28.7684 60.5729 28.7684H62.5853Z" fill="#4BA8E9"/>
<path d="M67.1827 31.4987H65.6609V28.2486H64.8436V27.088H65.6609V25.4077H67.1827V27.088H68V28.2486H67.1827V31.4987Z" fill="#4BA8E9"/>
<defs>
<linearGradient id="paint0_linear_152_18" x1="12.8405" y1="40.1649" x2="35.6946" y2="0.259671" gradientUnits="userSpaceOnUse">
<stop stop-color="#4BA8E9"/>
<stop offset="0.384" stop-color="#B48FFF"/>
<stop offset="0.859" stop-color="#DF5475"/>
</linearGradient>
</defs>
</svg>
